<svg xmlns="http://www.w3.org/2000/svg" viewBox="0 0 880 470" width="880" height="470" role="img" aria-label="Trailing vs EOD vs static">
  <rect x="0" y="0" width="880" height="470" rx="16" fill="#080808" stroke="#242424" stroke-width="1" />
  <text x="32" y="46" font-family="Inter, system-ui, -apple-system, 'Segoe UI', sans-serif" font-size="23" font-weight="700" fill="#ffffff" text-anchor="start" >Trailing vs EOD vs static</text>
  <text x="32" y="70" font-family="Inter, system-ui, -apple-system, 'Segoe UI', sans-serif" font-size="14" font-weight="400" fill="#8c8c8c" text-anchor="start" >The same trades, three different loss floors (dashed red)</text>
  
    <rect x="32" y="110" width="250" height="230" rx="8" fill="#141414" stroke="#242424" stroke-width="1" /><text x="44" y="102" font-family="Inter, system-ui, -apple-system, 'Segoe UI', sans-serif" font-size="14" font-weight="700" fill="#d72f2f" text-anchor="start" >Trailing</text><path d="M32.0 322.3 L82.0 265.7 L132.0 265.7 L182.0 230.3 L232.0 230.3 L282.0 202.0" fill="none" stroke="#d72f2f" stroke-width="2" stroke-dasharray="4 4" stroke-linejoin="round" stroke-linecap="round"/><path d="M32.0 251.5 L82.0 194.9 L132.0 216.2 L182.0 159.5 L232.0 180.8 L282.0 131.2" fill="none" stroke="#ffffff" stroke-width="2.5"  stroke-linejoin="round" stroke-linecap="round"/>
    <rect x="300" y="110" width="250" height="230" rx="8" fill="#141414" stroke="#242424" stroke-width="1" /><text x="312" y="102" font-family="Inter, system-ui, -apple-system, 'Segoe UI', sans-serif" font-size="14" font-weight="700" fill="#8c8c8c" text-anchor="start" >EOD</text><path d="M300.0 322.3 H350.0 V265.7 H400.0 V265.7 H450.0 V230.3 H500.0 V230.3 H550.0 V202.0 " fill="none" stroke="#d72f2f" stroke-width="2" stroke-dasharray="4 4" stroke-linejoin="round" stroke-linecap="round"/><path d="M300.0 251.5 L350.0 194.9 L400.0 216.2 L450.0 159.5 L500.0 180.8 L550.0 131.2" fill="none" stroke="#ffffff" stroke-width="2.5"  stroke-linejoin="round" stroke-linecap="round"/>
    <rect x="568" y="110" width="250" height="230" rx="8" fill="#141414" stroke="#242424" stroke-width="1" /><text x="580" y="102" font-family="Inter, system-ui, -apple-system, 'Segoe UI', sans-serif" font-size="14" font-weight="700" fill="#ffffff" text-anchor="start" >Static</text><path d="M568 322.3076923076923 L818 322.3076923076923" fill="none" stroke="#d72f2f" stroke-width="2" stroke-dasharray="4 4" stroke-linejoin="round" stroke-linecap="round"/><path d="M568.0 251.5 L618.0 194.9 L668.0 216.2 L718.0 159.5 L768.0 180.8 L818.0 131.2" fill="none" stroke="#ffffff" stroke-width="2.5"  stroke-linejoin="round" stroke-linecap="round"/>
    <text x="32" y="400" font-family="Inter, system-ui, -apple-system, 'Segoe UI', sans-serif" font-size="14" font-weight="400" fill="#8c8c8c" text-anchor="start" >Trailing tightens as you profit; static never moves; EOD updates daily.</text>
    <text x="32" y="426" font-family="Inter, system-ui, -apple-system, 'Segoe UI', sans-serif" font-size="13" font-weight="400" fill="#8c8c8c" text-anchor="start" >Same edge can pass under one and breach under another.</text>
</svg>