<svg xmlns="http://www.w3.org/2000/svg" viewBox="0 0 880 470" width="880" height="470" role="img" aria-label="Static drawdown">
  <rect x="0" y="0" width="880" height="470" rx="16" fill="#080808" stroke="#242424" stroke-width="1" />
  <text x="32" y="46" font-family="Inter, system-ui, -apple-system, 'Segoe UI', sans-serif" font-size="23" font-weight="700" fill="#ffffff" text-anchor="start" >Static drawdown</text>
  <text x="32" y="70" font-family="Inter, system-ui, -apple-system, 'Segoe UI', sans-serif" font-size="14" font-weight="400" fill="#8c8c8c" text-anchor="start" >A fixed floor that never moves — your banked profit is safe</text>
  
    <line x1="60" y1="302.5" x2="820" y2="302.5" stroke="#1c1c1c" stroke-width="1" /><line x1="60" y1="267.5" x2="820" y2="267.5" stroke="#1c1c1c" stroke-width="1" /><line x1="60" y1="232.5" x2="820" y2="232.5" stroke="#1c1c1c" stroke-width="1" /><line x1="60" y1="197.5" x2="820" y2="197.5" stroke="#1c1c1c" stroke-width="1" /><line x1="60" y1="162.5" x2="820" y2="162.5" stroke="#1c1c1c" stroke-width="1" /><line x1="60" y1="127.5" x2="820" y2="127.5" stroke="#1c1c1c" stroke-width="1" />
    <line x1="60" y1="372.5" x2="820" y2="372.5" stroke="#d72f2f" stroke-width="2" stroke-dasharray="5 5"/>
    <rect x="60" y="372.5" width="760" height="17.5" rx="0" fill="#d72f2f" stroke="none" stroke-width="1" opacity="0.06"/>
    <path d="M60.0 302.5 L168.6 257.0 L277.1 274.5 L385.7 218.5 L494.3 236.0 L602.9 176.5 L711.4 194.0 L820.0 145.0" fill="none" stroke="#ffffff" stroke-width="3"  stroke-linejoin="round" stroke-linecap="round"/>
    <text x="820" y="364.5" font-family="Inter, system-ui, -apple-system, 'Segoe UI', sans-serif" font-size="12" font-weight="400" fill="#d72f2f" text-anchor="end" >fixed floor (start − max DD)</text>
    <rect x="60" y="430" width="326.8" height="22" rx="11" fill="#d72f2f" opacity="0.15"/><text x="71" y="445" font-family="Inter, system-ui, -apple-system, 'Segoe UI', sans-serif" font-size="12" font-weight="600" fill="#d72f2f" text-anchor="start" >Floor stays put no matter how high you climb</text>
</svg>